<svg width="48" height="41" viewBox="0 0 48 41" fill="none" xmlns="http://www.w3.org/2000/svg">
<path d="M5.41288 0C4.21678 0 3.24603 0.9635 3.24603 2.15789V38.8421C3.24603 39.2485 3.36557 39.6221 3.56132 39.9463C2.14179 40.0056 0 40.1993 0 40.4521C0 40.7542 4.21244 41 5.41288 41V40.9979H33.5818C33.605 40.9979 33.6284 40.9941 33.6517 40.9937C33.6782 40.9944 33.7009 41 33.7278 41C34.4061 41 50.9187 40.7542 50.9187 40.4521C50.9187 40.2121 40.8055 40.0363 36.6268 39.9737C37.1113 39.6467 37.5529 39.2622 37.9155 38.84L51.7715 25.2457C51.9091 25.0871 52 24.9006 52 24.6556C52 24.1528 51.5845 23.7347 51.0732 23.7347H33.5818V33.4453L30.3273 30.2084L27.0813 33.4453V23.7347H20.2253C19.0443 23.7347 17.8245 24.425 17.0618 25.3173L6.4963 37.7611L10.83 10.7874H41.4768L40.4294 14.0242H43.6924L45.4254 8.83177C45.4644 8.71741 45.4995 8.58687 45.4995 8.47142C45.4995 7.96863 45.0819 7.55263 44.5705 7.55263H37.3738C37.0748 7.55263 36.8321 7.30683 36.8321 7.00473C36.8321 6.71773 37.0748 6.47368 37.3738 6.47368H40.0824C40.0824 5.27929 39.1116 4.31579 37.9155 4.31579H24.9145C20.5808 4.31579 20.5808 0 16.2471 0H5.41288ZM15.5361 15.1053C14.7235 15.1053 13.845 15.8091 13.5893 16.572L8.00928 34.3662L17.3305 18.34H47.1479L43.9526 22.6558H47.3045L51.8286 16.5572C51.9348 16.4137 51.9979 16.2258 51.9979 16.0241C51.9979 15.5213 51.5824 15.1053 51.071 15.1053H15.5361Z" fill="#FAB005"/>
</svg>
